<?xml version="1.0" encoding="utf-8"?>
<!-- Generator: Adobe Illustrator 24.3.0, SVG Export Plug-In . SVG Version: 6.00 Build 0)  -->
<svg version="1.1" id="Capa_1" xmlns="http://www.w3.org/2000/svg" xmlns:xlink="http://www.w3.org/1999/xlink" x="0px" y="0px"
	 viewBox="0 0 512 512" style="enable-background:new 0 0 512 512;" xml:space="preserve">
<style type="text/css">
	.st0{fill:#990033;}
	.st1{fill:#D257B1;}
	.st2{fill:#232323;}
</style>
<path class="st0" d="M301.9,337c-0.5,1.4-1.1,2.8-1.8,4.2c-0.8,1.7-1.7,3.5-2.6,5.2c-3.1,5.6-7,10.5-11.6,14.8c6.5,4,12.2,9,16.9,15
	c8.7,11,13.1,25.5,13.1,43c0,9.6-1.7,18.3-5,25.9h11.6V337H301.9z M402.7,337v108H439c29.8,0,54-24.2,54-54v-54H402.7z M61,337v54
	c0,27.9,21.2,50.9,48.3,53.7V337H61z M481.1,203.7l-43.8-43.8c-7.6-7.6-17.9-11.9-28.6-11.9H385v-33.8c0-26.1-21.2-47.2-47.2-47.2
	H235.4c1.7,4.6,2.6,9.6,2.6,14.7c0,0.7,0,1.5-0.1,2.2c5.8,2.7,11,6.7,15,11.7c2.9,3.6,5.2,7.6,6.8,11.9h78c3.7,0,6.8,3,6.8,6.8V148
	h-76.9c7.2,8.9,11.4,20.2,11.4,32.1c0,10.6-3.2,20.7-9.2,29.3c-4.2,6-9.5,10.9-15.7,14.6c0.2,1.8,0.3,3.5,0.3,5.3
	c0,6-1.2,11.7-3.5,16.9c10.6,0.7,20.1,4,28.2,9.9c8.9,6.5,15.8,14.9,20.5,25c4.2,9.2,6.6,18.7,6.9,28.5c0,0.1,0,0.2,0,0.4h15.9v-54
	c0-5.5,4.5-10,10-10h60.2c5.5,0,10,4.5,10,10v54H493v-77.7C493,221.6,488.7,211.3,481.1,203.7z"/>
<g>
	<path class="st1" d="M129.6,53v193h-10.2c-5.5,0-10,4.5-10,10v29.4c-2.7,0.8-5.5,1.3-8.4,1.3c-14.8,0-27-11.2-28.6-25.7
		c-2.7,0.7-5.5,1.1-8.3,1.1c-1,0-2,0-3-0.1c-16.7-1.5-29.8-15.6-29.8-32.7c0-3.8,0.7-7.5,1.8-10.9c-15.5-5.8-26.4-20.8-26.4-38.3
		c0-16.3,9.6-30.5,23.5-37c-4.5-5.6-7.1-12.7-7.1-20.3c0-15.7,11.1-28.9,25.8-32.1c-0.8-2.8-1.2-5.8-1.2-8.9
		c0-15.3,10.6-28.2,24.8-31.8c1.5-14.3,13.7-25.6,28.6-25.6C116.7,24.3,129.6,37.2,129.6,53z"/>
</g>
<g>
	<path class="st1" d="M242.5,218.4c1.2,3.4,1.9,7.1,1.9,10.9c0,6.1-1.7,11.8-4.6,16.7H146V53c0-15.8,12.9-28.7,28.7-28.7
		c14.8,0,27,11.2,28.5,25.6c9.4,2.3,17.1,8.7,21.3,17.1c2.2,4.4,3.5,9.4,3.5,14.7c0,3.1-0.4,6.1-1.2,8.9c9.6,2.1,17.7,8.4,22.1,16.9
		c2.4,4.5,3.7,9.7,3.7,15.2c0,7.7-2.6,14.8-7.1,20.3c2.8,1.3,5.5,3,7.9,5c9.5,7.5,15.5,19.1,15.5,32.1
		C269,197.6,258,212.6,242.5,218.4z"/>
</g>
<g>
	<g>
		<path class="st2" d="M294.9,382.3c-7.3-9.3-17.2-15.8-29.8-19.5c10.5-4.7,18.4-11.8,23.6-21.3c0.8-1.5,1.6-3,2.3-4.5
			c3.7-8,5.6-16.3,5.6-24.8c0-0.7,0-1.5,0-2.2c-0.3-8.5-2.3-16.7-6-24.7c-4-8.7-9.8-15.7-17.3-21.2c-7.5-5.5-16.4-8.2-26.7-8.2
			H119.3v219.3h107.8c14.4,0,27.6-2,39.5-5.9c11.9-3.9,21.5-10,28.6-18.2c1.7-1.9,3.1-4,4.4-6.2c4.2-7.2,6.3-15.8,6.3-25.9
			C305.9,403.8,302.2,391.6,294.9,382.3z M179.6,307.3h42.9c0.2,0,0.3,0,0.5,0c2.5,0.1,4.7,0.6,6.8,1.7c0.6,0.3,1.1,0.6,1.6,1
			c1.4,1.1,2.6,2.5,3.6,4.2c1.3,2.4,2,5.6,2,9.7c0,4.5-0.8,8-2.5,10.5c-0.6,1-1.4,1.8-2.1,2.6c-1.2,1.1-2.5,2-4,2.5
			c-1.8,0.7-3.7,1.1-5.6,1.3c-0.7,0.1-1.4,0.1-2.1,0.1h-41.1V307.3z M242.4,416.3c-1.5,2.7-3.6,4.7-6.3,6.2s-5.7,2.2-9,2.2h-47.6
			v-36.8h49.7c3.1,0,5.8,0.8,8,2.5c2.3,1.6,4.1,3.9,5.4,6.6c1.3,2.8,2,6,2,9.7C244.7,410.4,244,413.6,242.4,416.3z"/>
	</g>
	<g>
		<rect x="332.4" y="256" class="st2" width="60.2" height="219.3"/>
	</g>
</g>
</svg>
