<?xml version="1.0" encoding="utf-8"?>
<!-- Generator: Adobe Illustrator 24.3.0, SVG Export Plug-In . SVG Version: 6.00 Build 0)  -->
<svg version="1.1" id="Capa_1" xmlns="http://www.w3.org/2000/svg" xmlns:xlink="http://www.w3.org/1999/xlink" x="0px" y="0px"
	 viewBox="0 0 576 512" style="enable-background:new 0 0 576 512;" xml:space="preserve">
<style type="text/css">
	.st0{fill:#353535;}
	.st1{fill:#FFCC66;}
</style>
<g>
	<path class="st0" d="M367.7,0H208.3c-10.4,0-16.6,11.5-10.8,20.2L236,78h104l38.5-57.8C384.3,11.5,378.1,0,367.7,0z"/>
	<path class="st0" d="M350.6,110.8c-4-2.5-7.5-4.8-10.6-6.8H236c-3.1,2-6.7,4.3-10.6,6.8C179.4,140.3,80,203.9,80,338
		c0,43.1,34.9,78,78,78h260c43.1,0,78-34.9,78-78C496,203.9,396.6,140.3,350.6,110.8z M330.2,224.5c7.8,0,14.1,6.3,14.1,14.1
		c0,7.8-6.3,14.1-14.1,14.1H267c0,1.1-0.1,2.3-0.1,3.5v7c0,1.2,0,2.4,0.1,3.5h63.2c7.8,0,14.1,6.3,14.1,14.1
		c0,7.8-6.3,14.1-14.1,14.1h-55.3c11.3,20.9,33.4,35.1,58.8,35.1h10.5c7.8,0,14.1,6.3,14.1,14.1c0,7.8-6.3,14.1-14.1,14.1h-10.5
		c-41.3,0-76.5-26.4-89.5-63.3h-12.4c-7.8,0-14.1-6.3-14.1-14.1c0-7.8,6.3-14.1,14.1-14.1h7.1c0-1.2,0-2.3,0-3.5v-7
		c0-1.2,0-2.3,0-3.5h-7.1c-7.8,0-14.1-6.3-14.1-14.1c0-7.8,6.3-14.1,14.1-14.1h12.4c13-36.9,48.2-63.3,89.5-63.3h10.5
		c7.8,0,14.1,6.3,14.1,14.1s-6.3,14.1-14.1,14.1h-10.5c-25.4,0-47.5,14.2-58.8,35.2H330.2z"/>
</g>
<path class="st1" d="M559.7,392.2c17.8-13.1,21.6-38.1,8.5-55.9s-38.1-21.6-55.9-8.5L392.6,416H272c-8.8,0-16-7.2-16-16
	s7.2-16,16-16h16h64c17.7,0,32-14.3,32-32s-14.3-32-32-32h-64h-16h-78.3c-29.1,0-57.3,9.9-80,28l-44.9,36H32c-17.7,0-32,14.3-32,32
	v64c0,17.7,14.3,32,32,32h160h160.5c29,0,57.3-9.3,80.7-26.5L559.7,392.2L559.7,392.2z M192.7,384c0.3,0,0.6,0,0.9,0l0,0
	C193.3,384,193,384,192.7,384z"/>
</svg>
